<svg width="32" height="32" viewBox="0 0 32 32" fill="none" xmlns="http://www.w3.org/2000/svg">
<path d="M5.4 28C5 28 4.66667 27.8667 4.4 27.6C4.13333 27.3333 4 27 4 26.6V21.2C4 20.8889 4.1 20.6164 4.3 20.3827C4.5 20.1489 4.75556 19.9991 5.06667 19.9333L9.66667 19C9.97778 18.9556 10.2947 18.9836 10.6173 19.084C10.94 19.1844 11.2009 19.3342 11.4 19.5333L14.5333 22.6667C16.2222 21.6444 17.7667 20.4333 19.1667 19.0333C20.5667 17.6333 21.7333 16.1333 22.6667 14.5333L19.4667 11.2667C19.2667 11.0667 19.1387 10.8387 19.0827 10.5827C19.0267 10.3267 19.0213 10.0436 19.0667 9.73333L19.9333 5.06667C19.9778 4.75556 20.1222 4.5 20.3667 4.3C20.6111 4.1 20.8889 4 21.2 4H26.6C27 4 27.3333 4.13333 27.6 4.4C27.8667 4.66667 28 5 28 5.4C28 8.26667 27.3609 11.0613 26.0827 13.784C24.8044 16.5067 23.1156 18.9178 21.016 21.0173C18.9164 23.1169 16.5053 24.8058 13.7827 26.084C11.06 27.3622 8.26578 28.0009 5.4 28Z" fill="white"/>
</svg>
